<svg width="19" height="19" viewBox="0 0 19 19" fill="none" xmlns="http://www.w3.org/2000/svg">
<path d="M11.9754 6.24927C11.532 6.24927 11.1727 6.60863 11.1727 7.05202C11.1727 7.38003 11.3693 7.66043 11.6504 7.78515C11.6504 8.03879 11.6504 7.90446 11.6504 8.04358C11.6501 8.63878 11.41 9.17375 11.0206 9.5641C10.6305 9.9539 10.0946 10.1943 9.49974 10.1943C8.90517 10.1943 8.36931 9.9539 7.97951 9.5641C7.58979 9.17375 7.34969 8.63878 7.34969 8.04358V7.78515C7.63076 7.66046 7.82714 7.38006 7.82714 7.05202C7.82714 6.60863 7.46807 6.24927 7.02473 6.24927C6.58105 6.24927 6.22168 6.60863 6.22168 7.05202C6.22168 7.38032 6.41836 7.66043 6.69972 7.78515V8.04358C6.70002 9.5906 7.95335 10.8436 9.49977 10.8442C11.0468 10.8439 12.3001 9.5906 12.3001 8.04358C12.3001 7.90446 12.3001 8.03876 12.3001 7.78545C12.5815 7.66076 12.7785 7.38032 12.7785 7.05202C12.7784 6.60863 12.4188 6.24927 11.9754 6.24927Z" fill="white"/>
<path d="M18.1364 3.74293L16.5686 2.45071L16.5217 1.48022H2.47839L2.39255 2.45071L0.863572 3.74293L0 17.5199H19L18.1364 3.74293ZM1.3136 16.2862L2.02235 4.97667H16.9777L17.6864 16.2862H1.3136Z" fill="white"/>
</svg>
