<svg width="200" height="38" viewBox="0 0 200 38" fill="none" xmlns="http://www.w3.org/2000/svg">
<path d="M129.461 30C128.627 30 127.872 29.7571 127.197 29.2713C126.521 28.7854 125.986 28.1362 125.592 27.3236C125.197 26.5109 125 25.6011 125 24.5941L125.023 16.3264C125.023 15.3547 125.216 14.467 125.603 13.6632C125.99 12.8594 126.521 12.2146 127.197 11.7287C127.872 11.2429 128.627 11 129.461 11C130.296 11 131.047 11.2385 131.715 11.7155C132.382 12.1925 132.914 12.8329 133.308 13.6367C133.703 14.4405 133.9 15.3371 133.9 16.3264V17.5453C133.9 17.616 133.869 17.6513 133.809 17.6513H131.259C131.199 17.6513 131.168 17.616 131.168 17.5453V16.3264C131.168 15.7434 131.005 15.2399 130.679 14.8159C130.353 14.3919 129.947 14.1799 129.461 14.1799C128.915 14.1799 128.498 14.3963 128.209 14.8291C127.921 15.262 127.777 15.761 127.777 16.3264V24.5941C127.777 25.2478 127.94 25.7778 128.266 26.1841C128.593 26.5904 128.991 26.7936 129.461 26.7936C129.947 26.7936 130.353 26.5683 130.679 26.1179C131.005 25.6674 131.168 25.1595 131.168 24.5941V23.3752C131.168 23.3045 131.199 23.2692 131.259 23.2692H133.832C133.892 23.2692 133.923 23.3045 133.923 23.3752V24.5941C133.923 25.6011 133.722 26.5109 133.319 27.3236C132.917 28.1362 132.382 28.7854 131.715 29.2713C131.047 29.7571 130.296 30 129.461 30ZM138.27 29.735H135.698C135.622 29.735 135.584 29.6908 135.584 29.6025L135.607 11.3975C135.607 11.3268 135.637 11.2915 135.698 11.2915H138.247C138.308 11.2915 138.338 11.3268 138.338 11.3975L138.361 29.6025C138.361 29.6908 138.331 29.735 138.27 29.735ZM144.234 30C143.414 30 142.667 29.7571 141.992 29.2713C141.316 28.7854 140.778 28.1406 140.376 27.3368C139.973 26.533 139.772 25.6453 139.772 24.6736V23.4547C139.772 23.3663 139.81 23.3222 139.886 23.3222H142.436C142.496 23.3222 142.527 23.3663 142.527 23.4547V24.6736C142.527 25.2566 142.693 25.7557 143.027 26.1709C143.361 26.586 143.763 26.7936 144.234 26.7936C144.704 26.7936 145.106 26.5816 145.44 26.1576C145.774 25.7336 145.941 25.239 145.941 24.6736C145.941 24.02 145.577 23.4547 144.848 22.9777C144.605 22.8187 144.226 22.5714 143.71 22.2357C143.194 21.9 142.709 21.5821 142.253 21.2817C141.419 20.7164 140.8 20.0053 140.398 19.1485C139.996 18.2917 139.795 17.3245 139.795 16.2469C139.795 15.2576 140 14.3698 140.41 13.5837C140.819 12.7975 141.362 12.1748 142.037 11.7155C142.712 11.2562 143.445 11.0265 144.234 11.0265C145.038 11.0265 145.778 11.2606 146.453 11.7287C147.128 12.1969 147.667 12.824 148.069 13.6102C148.471 14.3963 148.672 15.2752 148.672 16.2469V18.4198C148.672 18.4905 148.642 18.5258 148.581 18.5258H146.032C145.971 18.5258 145.941 18.4905 145.941 18.4198L145.918 16.2469C145.918 15.6285 145.751 15.1251 145.417 14.7364C145.083 14.3477 144.689 14.1534 144.234 14.1534C143.763 14.1534 143.361 14.361 143.027 14.7762C142.693 15.1913 142.527 15.6815 142.527 16.2469C142.527 16.8298 142.633 17.3157 142.845 17.7043C143.058 18.093 143.445 18.464 144.006 18.8173C144.082 18.8703 144.23 18.963 144.45 19.0955C144.67 19.228 144.909 19.3782 145.167 19.546C145.425 19.7139 145.656 19.8596 145.861 19.9833C146.066 20.1069 146.191 20.1864 146.237 20.2218C146.995 20.7164 147.595 21.3215 148.035 22.037C148.475 22.7524 148.695 23.6313 148.695 24.6736C148.695 25.6806 148.494 26.586 148.092 27.3898C147.69 28.1936 147.151 28.8296 146.476 29.2978C145.8 29.7659 145.053 30 144.234 30ZM152.769 29.735H150.493C150.372 29.735 150.311 29.6732 150.311 29.5495L150.288 11.5035C150.288 11.3622 150.349 11.2915 150.47 11.2915H152.519L156.366 21.7322L156.252 11.5035C156.252 11.3622 156.32 11.2915 156.457 11.2915H158.71C158.801 11.2915 158.847 11.3622 158.847 11.5035L158.869 29.576C158.869 29.682 158.832 29.735 158.756 29.735H156.753L152.815 19.9833L152.974 29.523C152.974 29.6643 152.906 29.735 152.769 29.735ZM168.293 29.735H160.941C160.88 29.735 160.85 29.6908 160.85 29.6025L160.873 11.3975C160.873 11.3268 160.903 11.2915 160.964 11.2915H168.27C168.331 11.2915 168.361 11.3357 168.361 11.424V14.3919C168.361 14.4626 168.331 14.4979 168.27 14.4979H163.604V18.6318H168.27C168.331 18.6318 168.361 18.6671 168.361 18.7378L168.384 21.7322C168.384 21.8029 168.354 21.8382 168.293 21.8382H163.604V26.4756H168.293C168.354 26.4756 168.384 26.5198 168.384 26.6081V29.629C168.384 29.6997 168.354 29.735 168.293 29.735ZM173.073 29.735H170.501C170.44 29.735 170.41 29.6908 170.41 29.6025L170.455 11.3975C170.455 11.3268 170.486 11.2915 170.546 11.2915H175.144C175.964 11.2915 176.719 11.5256 177.409 11.9937C178.099 12.4619 178.649 13.089 179.059 13.8752C179.469 14.6613 179.674 15.549 179.674 16.5384C179.674 17.192 179.59 17.7794 179.423 18.3006C179.256 18.8217 179.059 19.2634 178.832 19.6255C178.604 19.9877 178.399 20.2571 178.217 20.4338C179.036 21.4937 179.446 22.7392 179.446 24.1702L179.469 29.6025C179.469 29.6908 179.431 29.735 179.355 29.735H176.783C176.722 29.735 176.692 29.7085 176.692 29.6555V24.1702C176.692 23.5342 176.498 22.9821 176.112 22.5139C175.725 22.0458 175.25 21.8117 174.689 21.8117H173.187L173.164 29.6025C173.164 29.6908 173.134 29.735 173.073 29.735ZM173.187 14.4714V18.6318H175.144C175.615 18.6318 176.032 18.4286 176.396 18.0223C176.76 17.616 176.942 17.1213 176.942 16.5384C176.942 15.973 176.764 15.4872 176.407 15.0809C176.051 14.6746 175.63 14.4714 175.144 14.4714H173.187ZM185.478 30C184.659 30 183.911 29.7571 183.236 29.2713C182.561 28.7854 182.018 28.1406 181.608 27.3368C181.199 26.533 180.994 25.6453 180.994 24.6736L181.017 16.2734C181.017 15.3017 181.218 14.4184 181.62 13.6234C182.022 12.8285 182.564 12.1925 183.247 11.7155C183.93 11.2385 184.674 11 185.478 11C186.297 11 187.041 11.2385 187.709 11.7155C188.376 12.1925 188.911 12.8285 189.313 13.6234C189.715 14.4184 189.917 15.3017 189.917 16.2734L189.939 24.6736C189.939 25.6453 189.738 26.533 189.336 27.3368C188.934 28.1406 188.395 28.7854 187.72 29.2713C187.045 29.7571 186.297 30 185.478 30ZM185.478 26.7936C185.933 26.7936 186.332 26.5772 186.673 26.1444C187.014 25.7115 187.185 25.2213 187.185 24.6736L187.162 16.2734C187.162 15.6904 187.003 15.1957 186.684 14.7894C186.366 14.3831 185.964 14.1799 185.478 14.1799C185.008 14.1799 184.605 14.3787 184.272 14.7762C183.938 15.1736 183.771 15.6727 183.771 16.2734V24.6736C183.771 25.2566 183.938 25.7557 184.272 26.1709C184.605 26.586 185.008 26.7936 185.478 26.7936ZM195.539 30C194.719 30 193.972 29.7571 193.297 29.2713C192.621 28.7854 192.083 28.1406 191.681 27.3368C191.278 26.533 191.077 25.6453 191.077 24.6736V23.4547C191.077 23.3663 191.115 23.3222 191.191 23.3222H193.741C193.801 23.3222 193.832 23.3663 193.832 23.4547V24.6736C193.832 25.2566 193.998 25.7557 194.332 26.1709C194.666 26.586 195.068 26.7936 195.539 26.7936C196.009 26.7936 196.411 26.5816 196.745 26.1576C197.079 25.7336 197.246 25.239 197.246 24.6736C197.246 24.02 196.882 23.4547 196.153 22.9777C195.91 22.8187 195.531 22.5714 195.015 22.2357C194.499 21.9 194.014 21.5821 193.558 21.2817C192.724 20.7164 192.105 20.0053 191.703 19.1485C191.301 18.2917 191.1 17.3245 191.1 16.2469C191.1 15.2576 191.305 14.3698 191.715 13.5837C192.124 12.7975 192.667 12.1748 193.342 11.7155C194.017 11.2562 194.75 11.0265 195.539 11.0265C196.343 11.0265 197.083 11.2606 197.758 11.7287C198.433 12.1969 198.972 12.824 199.374 13.6102C199.776 14.3963 199.977 15.2752 199.977 16.2469V18.4198C199.977 18.4905 199.947 18.5258 199.886 18.5258H197.337C197.276 18.5258 197.246 18.4905 197.246 18.4198L197.223 16.2469C197.223 15.6285 197.056 15.1251 196.722 14.7364C196.388 14.3477 195.994 14.1534 195.539 14.1534C195.068 14.1534 194.666 14.361 194.332 14.7762C193.998 15.1913 193.832 15.6815 193.832 16.2469C193.832 16.8298 193.938 17.3157 194.15 17.7043C194.363 18.093 194.75 18.464 195.311 18.8173C195.387 18.8703 195.535 18.963 195.755 19.0955C195.975 19.228 196.214 19.3782 196.472 19.546C196.73 19.7139 196.961 19.8596 197.166 19.9833C197.371 20.1069 197.496 20.1864 197.542 20.2218C198.3 20.7164 198.9 21.3215 199.34 22.037C199.78 22.7524 200 23.6313 200 24.6736C200 25.6806 199.799 26.586 199.397 27.3898C198.995 28.1936 198.456 28.8296 197.781 29.2978C197.105 29.7659 196.358 30 195.539 30Z" fill="white"/>
<path d="M44 29.6025L47.0392 11.3975C47.0556 11.3268 47.0964 11.2915 47.1618 11.2915H50.7157C50.781 11.2915 50.8219 11.3268 50.8382 11.3975L53.7549 29.6025C53.7712 29.6908 53.7386 29.735 53.6569 29.735H50.9363C50.8709 29.735 50.8301 29.6908 50.8137 29.6025L50.5441 27.6681H47.2108L46.9412 29.6025C46.9248 29.6908 46.884 29.735 46.8186 29.735H44.098C44.0327 29.735 44 29.6908 44 29.6025ZM48.8039 17.3863L47.701 24.8326H50.0539L49.049 17.3863L48.902 16.4059L48.8039 17.3863ZM58.1667 29.735H55.3971C55.3317 29.735 55.299 29.6908 55.299 29.6025L55.348 11.3975C55.348 11.3268 55.3807 11.2915 55.4461 11.2915H60.3971C61.2794 11.2915 62.0923 11.5256 62.8358 11.9937C63.5792 12.4619 64.1716 13.089 64.6127 13.8752C65.0539 14.6613 65.2745 15.549 65.2745 16.5384C65.2745 17.192 65.1846 17.7794 65.0049 18.3006C64.8252 18.8217 64.6127 19.2634 64.3676 19.6255C64.1226 19.9877 63.902 20.2571 63.7059 20.4338C64.5882 21.4937 65.0294 22.7392 65.0294 24.1702L65.0539 29.6025C65.0539 29.6908 65.0131 29.735 64.9314 29.735H62.1618C62.0964 29.735 62.0637 29.7085 62.0637 29.6555V24.1702C62.0637 23.5342 61.8554 22.9821 61.4387 22.5139C61.0221 22.0458 60.5114 21.8117 59.9069 21.8117H58.2892L58.2647 29.6025C58.2647 29.6908 58.232 29.735 58.1667 29.735ZM58.2892 14.4714V18.6318H60.3971C60.9036 18.6318 61.3529 18.4286 61.7451 18.0223C62.1373 17.616 62.3333 17.1213 62.3333 16.5384C62.3333 15.973 62.1413 15.4872 61.7574 15.0809C61.3734 14.6746 60.9199 14.4714 60.3971 14.4714H58.2892ZM69.7843 29.735H67.3333C67.2026 29.735 67.1373 29.6732 67.1373 29.5495L67.1127 11.5035C67.1127 11.3622 67.1781 11.2915 67.3088 11.2915H69.5147L73.6569 21.7322L73.5343 11.5035C73.5343 11.3622 73.6078 11.2915 73.7549 11.2915H76.1814C76.2794 11.2915 76.3284 11.3622 76.3284 11.5035L76.3529 29.576C76.3529 29.682 76.3121 29.735 76.2304 29.735H74.0735L69.8333 19.9833L70.0049 29.523C70.0049 29.6643 69.9314 29.735 69.7843 29.735ZM77.652 29.6025L80.6912 11.3975C80.7075 11.3268 80.7484 11.2915 80.8137 11.2915H84.3676C84.433 11.2915 84.4739 11.3268 84.4902 11.3975L87.4069 29.6025C87.4232 29.6908 87.3905 29.735 87.3088 29.735H84.5882C84.5229 29.735 84.482 29.6908 84.4657 29.6025L84.1961 27.6681H80.8627L80.5931 29.6025C80.5768 29.6908 80.5359 29.735 80.4706 29.735H77.75C77.6846 29.735 77.652 29.6908 77.652 29.6025ZM82.4559 17.3863L81.3529 24.8326H83.7059L82.701 17.3863L82.5539 16.4059L82.4559 17.3863ZM96.9657 29.735H89.049C88.9837 29.735 88.951 29.6908 88.951 29.6025L88.9755 11.424C88.9755 11.3357 89.0163 11.2915 89.098 11.2915H91.8186C91.9003 11.2915 91.9412 11.3357 91.9412 11.424L91.9167 26.4756H96.9657C97.0474 26.4756 97.0882 26.5198 97.0882 26.6081V29.6025C97.0882 29.6908 97.0474 29.735 96.9657 29.735ZM103.191 29.7085L98.8039 29.735C98.7222 29.735 98.6814 29.6908 98.6814 29.6025L98.7304 11.3975C98.7304 11.3268 98.7631 11.2915 98.8284 11.2915L103.412 11.265C104.31 11.2473 105.132 11.477 105.875 11.954C106.618 12.431 107.211 13.0714 107.652 13.8752C108.093 14.679 108.314 15.5667 108.314 16.5384V24.1437C108.314 25.1683 108.085 26.1002 107.627 26.9393C107.17 27.7785 106.557 28.4454 105.789 28.94C105.021 29.4347 104.155 29.6908 103.191 29.7085ZM101.696 14.4714L101.672 26.4756H103.191C103.796 26.4756 104.306 26.2459 104.723 25.7866C105.14 25.3273 105.348 24.7796 105.348 24.1437V16.5119C105.348 15.9465 105.156 15.4563 104.772 15.0411C104.388 14.626 103.935 14.4272 103.412 14.4449L101.696 14.4714ZM114.196 30C113.314 30 112.509 29.7571 111.782 29.2713C111.055 28.7854 110.471 28.1406 110.029 27.3368C109.588 26.533 109.368 25.6453 109.368 24.6736L109.392 16.2734C109.392 15.3017 109.609 14.4184 110.042 13.6234C110.475 12.8285 111.059 12.1925 111.794 11.7155C112.529 11.2385 113.33 11 114.196 11C115.078 11 115.879 11.2385 116.598 11.7155C117.317 12.1925 117.893 12.8285 118.326 13.6234C118.759 14.4184 118.975 15.3017 118.975 16.2734L119 24.6736C119 25.6453 118.783 26.533 118.35 27.3368C117.917 28.1406 117.337 28.7854 116.61 29.2713C115.883 29.7571 115.078 30 114.196 30ZM114.196 26.7936C114.686 26.7936 115.115 26.5772 115.483 26.1444C115.85 25.7115 116.034 25.2213 116.034 24.6736L116.01 16.2734C116.01 15.6904 115.838 15.1957 115.495 14.7894C115.152 14.3831 114.719 14.1799 114.196 14.1799C113.69 14.1799 113.257 14.3787 112.897 14.7762C112.538 15.1736 112.358 15.6727 112.358 16.2734V24.6736C112.358 25.2566 112.538 25.7557 112.897 26.1709C113.257 26.586 113.69 26.7936 114.196 26.7936Z" fill="white"/>
<path fill-rule="evenodd" clip-rule="evenodd" d="M18.9767 25.9508L31.7473 33.3943L23.8295 37.9991L18.9888 35.1874L14.1844 38L6.25445 33.3943L18.9767 25.9508ZM18.9767 12.8646L38 23.9432V29.605L34.96 31.4103L18.9775 22.1004L3.04432 31.4103L0.00431818 29.6294V23.9432L18.9767 12.8638V12.8646ZM18.9741 0L37.9965 11.0663V20.2899L18.9862 9.23662L0 20.3152V11.0785L18.9741 0Z" fill="white"/>
</svg>
